<?xml version="1.0" encoding="UTF-8"?>
<svg id="Layer_2" data-name="Layer 2" xmlns="http://www.w3.org/2000/svg" viewBox="0 0 48.09 49.32">
  <defs>
    <style>
      .cls-1 {
        fill: #808285;
      }

      .cls-2 {
        fill: #e6e7e8;
      }
    </style>
  </defs>
  <g id="Layer_1-2" data-name="Layer 1">
    <g>
      <g>
        <polygon class="cls-2" points="7.16 49.32 5.92 48.35 8.68 43.73 10.96 40.9 26.67 18.68 27.5 19.46 28.24 19.81 12.67 42.03 10.9 44.93 7.16 49.32"/>
        <path class="cls-1" d="m29.47,20.21c-.41-.05-1.19-.2-1.98-.75-1.04-.72-1.48-1.69-1.63-2.07.11-.18.23-.36.34-.55l.37-.15,1.48-1.73-.02-.11.56-.82.28-.05-.08-.48.95-1.92.58-1.38c.93-1.3,1.9-2.63,2.89-3.96,1.04-1.39,2.08-2.74,3.11-4.06.18-.14.84-.62.98-.72.79-.37,1.72-.29,2.41.22.74.54,1.09,1.49.89,2.4-.06.25-.12.5-.17.75l-5.26,8.02-1.18,1.37-1.72,1.69-.42.1-.06.38-.58.67-1.2,2.12.07.33-.64.68Z"/>
      </g>
      <g>
        <path class="cls-2" d="m21.42.04c-.8-.06-1.8-.07-2.94.08-1.07.14-1.99.38-2.72.63-1.7.74-3.39,1.48-5.09,2.21-.89.51-1.96,1.22-3.04,2.21-.83.75-1.49,1.5-2.01,2.16-.08.33-.17.67-.3,1.04-.07.2-.14.39-.21.57-.13.28-.31.61-.57.96-.24.33-.48.58-.7.78,0,0-.82.46-.82.46,0,0-.03.02-.03.02-.08-.02-.18-.03-.28-.04-.41,0-.72.17-.88.28-.3.24-.64.54-.98.92-.31.34-.55.66-.75.96-.04.08-.1.22-.11.39-.02.27.07.47.12.56.27.47.73,1.11,1.44,1.73.55.48,1.09.79,1.51.99.07.05.31.2.63.17.19-.02.33-.1.41-.15.25-.17.52-.39.8-.67.57-.58.89-1.19,1.08-1.63.02-.17.05-.36.09-.56.06-.26.14-.48.21-.67.15-.35.48-.96,1.11-1.51.68-.6,1.38-.84,1.75-.93.22-.02.5-.03.81,0,.21.03.39.07.54.11,4.2,4.37,8.4,8.74,12.59,13.11l1.18,2.14c.37-.1,1.24-.51,2-1.38.62-.71.84-1.45.93-1.83-1.55-1.43-3.09-2.87-4.64-4.3-2.73-3.1-5.46-6.19-8.2-9.29-.78-.7-1.04-1.35-1.13-1.84-.42-2.45,2.8-5.62,8.17-7.68Z"/>
        <path class="cls-1" d="m46.92,43.23c.2.1.92.47,1.12,1.18.1.36.04.72-.17,1.26-.91,2.29-2.84,3.27-3.4,3.5-.31.13-.62.19-.93.09-.3-.1-.48-.33-.58-.46-.28-.36-.26-.64-.45-1.18-.11-.32-.23-.55-.48-1-.43-.78-.89-1.33-1.13-1.6-3.85-4.41-6.97-7.66-6.97-7.66-1.87-1.95-3.98-4.18-4.97-5.42-.11-.13-.61-.77-1.33-1.61-.3-.34-.58-.67-1.07-1.2-2.08-2.28-2.39-2.47-2.32-2.87.11-.66,1.01-.49,1.94-1.71.57-.75.58-1.38,1.02-1.47.35-.07.67.27,1.43,1.03,1.99,1.99,3.28,3.42,3.28,3.42.26.29.52.57.78.86,1.39,1.54,2.82,3.05,4.53,4.83,6.35,6.6,9.52,9.9,9.71,10Z"/>
      </g>
    </g>
  </g>
</svg>