<?xml version="1.0" encoding="UTF-8"?>
<svg id="Layer_2" data-name="Layer 2" xmlns="http://www.w3.org/2000/svg" viewBox="0 0 30.37 46.26">
  <defs>
    <style>
      .cls-1 {
        fill: #a7a9ac;
      }

      .cls-2 {
        fill: #d1d3d4;
      }

      .cls-3 {
        fill: #e6e7e8;
      }
    </style>
  </defs>
  <g id="Layer_1-2" data-name="Layer 1">
    <g>
      <g>
        <g>
          <polygon class="cls-1" points="11.05 46.26 8.31 41.65 3.73 44.42 8.86 23.98 16.18 25.82 11.05 46.26"/>
          <polygon class="cls-1" points="19.32 46.26 22.05 41.65 26.64 44.42 21.5 23.98 14.18 25.82 19.32 46.26"/>
        </g>
        <path class="cls-3" d="m16.95,1.04h0c1.02-1.84,3.82-1.09,3.78,1.01h0c-.03,1.58,1.7,2.58,3.05,1.76h0c1.8-1.08,3.85.97,2.77,2.77h0c-.81,1.36.18,3.08,1.76,3.05h0c2.1-.03,2.85,2.76,1.01,3.78h0c-1.38.77-1.38,2.76,0,3.53h0c1.84,1.02,1.09,3.82-1.01,3.78h0c-1.58-.03-2.58,1.7-1.76,3.05h0c1.08,1.8-.97,3.85-2.77,2.77h0c-1.36-.81-3.08.18-3.05,1.76h0c.03,2.1-2.76,2.85-3.78,1.01h0c-.77-1.38-2.76-1.38-3.53,0h0c-1.02,1.84-3.82,1.09-3.78-1.01h0c.03-1.58-1.7-2.58-3.05-1.76h0c-1.8,1.08-3.85-.97-2.77-2.77h0c.81-1.36-.18-3.08-1.76-3.05h0c-2.1.03-2.85-2.76-1.01-3.78h0c1.38-.77,1.38-2.76,0-3.53h0c-1.84-1.02-1.09-3.82,1.01-3.78h0c1.58.03,2.58-1.7,1.76-3.05h0c-1.08-1.8.97-3.85,2.77-2.77h0c1.36.81,3.08-.18,3.05-1.76h0c-.03-2.1,2.76-2.85,3.78-1.01h0c.77,1.38,2.76,1.38,3.53,0Z"/>
      </g>
      <circle class="cls-2" cx="15.18" cy="15.18" r="7.39"/>
    </g>
  </g>
</svg>