<?xml version="1.0" encoding="UTF-8"?>
<svg id="Layer_2" data-name="Layer 2" xmlns="http://www.w3.org/2000/svg" viewBox="0 0 48 29.01">
  <defs>
    <style>
      .cls-1 {
        fill: #808285;
      }

      .cls-2 {
        fill: #e6e7e8;
      }

      .cls-3 {
        fill: #bcbec0;
      }
    </style>
  </defs>
  <g id="Layer_2-2" data-name="Layer 2">
    <g>
      <path class="cls-1" d="m34.09,23.41c1.2,1.02,2.57,2.09,4.12,3.15,1.37.94,2.7,1.75,3.94,2.45.34-.18.95-.55,1.43-1.25.29-.42.45-.83.54-1.13-.71-.44-1.51-1-2.33-1.73-.58-.52-1.08-1.03-1.49-1.51-2.07,0-4.14.02-6.21.03Z"/>
      <polygon class="cls-3" points="48 21.22 47.06 20.77 30.72 20.59 48 21.22"/>
      <polygon class="cls-3" points="8.91 19.02 7.88 19.56 11.78 21.22 25.03 20.55 11.64 20.1 8.91 19.02"/>
      <path class="cls-2" d="m7.88,19.56l-7.88,2.91.85.76,47.15.18v-2.19l-17.28-.63,16.34.18-2.24-.99c.49-7.2-3.04-14.02-9.04-17.46C28.72-1.72,19.45-.42,13.34,5.68c.12.93.24,1.85.36,2.78-.9.77-2.3,2.17-3.36,4.3-1.3,2.61-1.45,5.01-1.43,6.27.91.36,1.82.72,2.73,1.07l13.39.45-13.25.67-3.9-1.66Z"/>
      <path class="cls-3" d="m14.43,10.59c.93-1.13,2.98-3.31,6.36-4.65,2.68-1.06,5.07-1.14,6.46-1.08,1.55,0,4.5.22,7.69,1.87,2.54,1.31,4.21,3,5.14,4.11-.64-1.19-2.05-3.42-4.72-5.19-3.44-2.29-6.88-2.43-8.23-2.41-1.28-.05-3.96.02-6.86,1.52-3.55,1.84-5.25,4.72-5.84,5.83Z"/>
    </g>
  </g>
</svg>