<?xml version="1.0" encoding="UTF-8"?>
<svg id="Layer_2" data-name="Layer 2" xmlns="http://www.w3.org/2000/svg" viewBox="0 0 49.71 29.98">
  <defs>
    <style>
      .cls-1 {
        letter-spacing: 0em;
      }

      .cls-2 {
        letter-spacing: -.03em;
      }

      .cls-3 {
        letter-spacing: 0em;
      }

      .cls-4 {
        font-family: Gotham-Bold, Gotham;
        font-size: 5.37px;
        font-weight: 700;
      }

      .cls-4, .cls-5 {
        fill: #35b44d;
      }

      .cls-6 {
        letter-spacing: -.03em;
      }

      .cls-7 {
        letter-spacing: 0em;
      }

      .cls-8 {
        fill: #808285;
      }

      .cls-9 {
        fill: #e6e7e8;
      }

      .cls-10 {
        fill: #bcbec0;
      }

      .cls-11 {
        fill: #231f20;
      }

      .cls-12 {
        fill: #414042;
      }
    </style>
  </defs>
  <g id="Layer_1-2" data-name="Layer 1">
    <g>
      <path class="cls-11" d="m12.39,24.96H4.23V4.03h8.16c6.58,0,11.12,4.51,11.12,10.4v.06c0,5.89-4.54,10.46-11.12,10.46Zm6.31-10.46c0-3.71-2.54-6.31-6.31-6.31h-3.56v12.61h3.56c3.77,0,6.31-2.54,6.31-6.25v-.06Z"/>
      <text class="cls-4" transform="translate(7.56 29.05)"><tspan class="cls-1" x="0" y="0">R</tspan><tspan x="3.83" y="0">en</tspan><tspan class="cls-6" x="10.47" y="0">o</tspan><tspan class="cls-2" x="13.88" y="0">v</tspan><tspan class="cls-7" x="16.97" y="0">a</tspan><tspan class="cls-3" x="20.13" y="0">tions</tspan></text>
      <path class="cls-5" d="m35.62,4.03l-5.5,8.85-5.5-8.85h-4.96v20.92h4.51v-13.57l5.83,8.85h.12l5.89-8.94v13.66h4.57V4.03h-4.96Zm3.55,5.11l-.15.83-.1.12.06.12-.03.31.08.85.09.08-.05.32c-.09.05-.25.1-.43.14v9.49s.08,1.19.08,1.19l-.19,2.01-.55-.03-.14-1.88.08-1.27.03-9.52.39.06c-.44,0-.76-.19-.88-.27,0-.07,0-.15-.01-.23l.08-.12.08-.79-.03-.03v-.35s.07-.07.07-.07l-.12-.12-.11-.74-.11-.51c0-.56.02-1.13.03-1.71.02-.61.04-1.2.07-1.79.02-.08.11-.35.14-.4.15-.27.43-.43.73-.42.32,0,.61.21.74.51.03.08.07.17.1.25l.11,3.35-.06.63Z"/>
      <g>
        <path class="cls-12" d="m49.71,3.29c-.27-.29-.62-.62-1.08-.95-.43-.31-.84-.52-1.18-.68-.85-.3-1.7-.6-2.55-.9-.49-.11-1.1-.21-1.82-.22-.54,0-1.03.04-1.43.11-.14.09-.29.18-.45.27-.09.05-.18.09-.26.13-.14.06-.31.11-.52.15-.19.04-.37.05-.51.05,0,0-.44-.11-.45-.11,0,0-.02,0-.02,0-.02-.03-.05-.07-.09-.11-.14-.14-.31-.18-.4-.19-.19-.01-.41-.02-.65,0-.22.02-.42.05-.59.09-.04.02-.11.05-.17.1-.1.09-.13.19-.14.24-.06.26-.11.64-.06,1.09.04.35.13.64.21.86,0,.04.04.17.17.27.08.06.15.07.19.08.14.02.32.03.51.03.4-.02.71-.13.93-.22.06-.05.14-.11.22-.17.11-.07.21-.13.3-.17.17-.07.49-.18.9-.17.44.01.77.16.94.25.09.06.19.15.29.27.07.08.12.15.16.22.05,2.95.09,5.91.14,8.86l-.29,1.16c.17.09.61.23,1.17.17.46-.05.78-.24.94-.34-.08-1.03-.15-2.05-.23-3.08.05-2.01.11-4.03.16-6.04-.05-.51.08-.83.21-1.03.66-1.01,2.87-1.08,5.47-.03Z"/>
        <path class="cls-12" d="m44.47,27.18c.03.1.17.47,0,.79-.08.16-.23.27-.48.39-1.09.52-2.1.23-2.38.12-.15-.06-.29-.14-.36-.28-.07-.14-.06-.28-.06-.36.02-.22.12-.31.23-.57.07-.15.1-.27.16-.52.11-.42.12-.77.13-.95.09-2.85.06-5.05.06-5.05-.02-1.32-.03-2.81.03-3.59,0-.08.04-.48.06-1.02,0-.22.01-.43.02-.78.01-1.5-.03-1.67.12-1.79.26-.2.52.16,1.26.03.45-.08.66-.3.85-.19.15.09.15.32.17.84.05,1.37.04,2.31.04,2.31,0,.19,0,.38,0,.57-.01,1.01,0,2.02.01,3.23.07,4.46.11,6.7.15,6.79Z"/>
      </g>
      <g>
        <path class="cls-8" d="m6.62,4.22c.38,0,.8-.02,1.26-.07.4-.04.77-.1,1.11-.17.03-.09.09-.25.07-.46-.01-.12-.05-.22-.08-.29-.2.03-.44.05-.7.05-.19,0-.36-.02-.51-.04-.38.33-.76.66-1.14.99Z"/>
        <polygon class="cls-10" points="8.84 1.62 8.59 1.69 5.56 4.24 8.84 1.62"/>
        <polygon class="cls-10" points="1.29 7.4 1.19 7.66 2.17 7.35 4.5 5.13 1.97 7.16 1.29 7.4"/>
        <path class="cls-9" d="m1.19,7.66l-.99,1.78h.28S9.18,2.02,9.18,2.02l-.35-.4-3.28,2.62,3.04-2.55-.57.17C6.97.46,5.25-.24,3.6.08,1.66.45.16,2.15,0,4.24c.17.15.34.3.51.45-.04.28-.08.76.06,1.32.17.69.53,1.15.73,1.38.22-.08.45-.16.67-.23l2.53-2.04-2.33,2.22-.98.31Z"/>
        <path class="cls-10" d="m.98,4.97c0-.35.02-1.08.43-1.86.33-.62.75-1.01,1.02-1.22.29-.24.86-.67,1.71-.87.68-.16,1.25-.11,1.6-.06-.31-.12-.92-.3-1.69-.21-.99.12-1.65.64-1.9.86-.24.19-.73.63-1.02,1.37-.36.9-.22,1.7-.15,2Z"/>
      </g>
    </g>
  </g>
</svg>