<?xml version="1.0" encoding="UTF-8"?>
<svg id="Layer_2" data-name="Layer 2" xmlns="http://www.w3.org/2000/svg" viewBox="0 0 48.2 30.41">
  <defs>
    <style>
      .cls-1 {
        fill: #939598;
      }

      .cls-2 {
        fill: #d1d3d4;
      }
    </style>
  </defs>
  <g id="Layer_1-2" data-name="Layer 1">
    <g>
      <path class="cls-2" d="m7.27,5.73l-.51,6.37c-.1.13-.35.41-.77.53-.78.23-1.43-.32-1.48-.36-.12-.15-.87-1.04-1.98-1.03-1.34.01-2.39,1.31-2.52,2.59-.1,1.02.35,2.36,1.57,2.84.9.35,1.97.13,2.75-.58.09-.05.57-.31,1.16-.13.53.16.79.57.85.66l-.61,6.44,6.34.6c.24-.1.39-.24.47-.34.58-.67.16-1.72.14-1.76-.66-.86-.74-2.02-.2-2.92.57-.95,1.65-1.29,2.54-1.2.11.01,1.54.19,2.11,1.45.45.99.18,2.22-.69,3.03-.03.03-.61.76-.32,1.54.13.34.38.55.51.64,2.12.2,4.24.4,6.36.6l.6-6.4c.08-.08.43-.45,1.02-.5.53-.04.9.21,1,.29.06.07,1.02,1.22,2.45,1.03,1.25-.16,2.16-1.25,2.28-2.44.1-.97-.32-2.09-1.34-2.65-.97-.53-2.2-.38-3.05.38-.11.05-.52.21-1.02.06-.53-.16-.79-.56-.85-.65.11-1.05.22-2.12.31-3.21.1-1.09.19-2.17.27-3.23l-6.36-.6c-.17.06-.45.18-.65.45-.36.47-.34,1.19.04,1.82.1.14.76,1.07.46,2.18-.31,1.18-1.54,1.97-2.77,1.86-1.12-.1-2.14-.93-2.36-2.08-.25-1.29.65-2.24.74-2.34.52-.46.72-1.13.52-1.67-.14-.37-.43-.58-.57-.66l-6.47-.61Z"/>
      <path class="cls-1" d="m46.79,5.75l-6.36.61c-.14-.07-.46-.27-.66-.66-.36-.73.06-1.46.1-1.52.13-.15.87-1.04.67-2.13-.24-1.32-1.7-2.13-2.99-2.03-1.02.08-2.27.76-2.53,2.03-.19.95.22,1.97,1.05,2.61.06.08.4.51.33,1.12-.07.55-.42.88-.51.95l-6.44.52.51,6.35c.14.22.3.34.42.41.76.45,1.72-.14,1.76-.16.73-.8,1.86-1.08,2.84-.71,1.04.4,1.56,1.41,1.62,2.3,0,.11.08,1.55-1.06,2.33-.9.62-2.15.57-3.1-.15-.04-.02-.85-.47-1.57-.05-.32.19-.47.47-.54.62.17,2.12.34,4.25.51,6.37l6.41-.52c.1.06.52.35.67.92.13.51-.05.93-.11,1.04-.06.07-1.02,1.22-.59,2.59.38,1.2,1.61,1.91,2.79,1.83.97-.07,2.01-.68,2.38-1.77.35-1.05,0-2.23-.9-2.94-.07-.1-.29-.48-.23-.99.06-.55.41-.87.5-.95,1.06-.07,2.13-.15,3.21-.25,1.09-.09,2.17-.19,3.23-.3l-.51-6.37c-.09-.16-.26-.41-.56-.57-.53-.27-1.24-.13-1.78.35-.12.13-.93.93-2.07.83-1.22-.1-2.2-1.18-2.31-2.41-.1-1.12.54-2.27,1.63-2.69,1.22-.47,2.32.25,2.43.32.54.43,1.24.52,1.73.22.34-.2.49-.52.56-.67l-.52-6.48Z"/>
    </g>
  </g>
</svg>