<?xml version="1.0" encoding="UTF-8"?>
<svg id="Layer_2" data-name="Layer 2" xmlns="http://www.w3.org/2000/svg" viewBox="0 0 29.56 44.93">
  <defs>
    <style>
      .cls-1 {
        fill: #939598;
      }

      .cls-2 {
        fill: #fff;
        stroke: #58595b;
      }

      .cls-2, .cls-3, .cls-4 {
        stroke-miterlimit: 10;
      }

      .cls-5 {
        fill: #808285;
      }

      .cls-3 {
        fill: none;
        stroke: #808285;
      }

      .cls-4 {
        fill: #6d6e71;
        stroke: #6d6e71;
      }
    </style>
  </defs>
  <g id="Layer_1-2" data-name="Layer 1">
    <g>
      <rect class="cls-2" x=".5" y="5.51" width="28.56" height="38.92" rx="1.29" ry="1.29"/>
      <rect class="cls-4" x="4.07" y="13.92" width="1.31" height="1.31" rx=".17" ry=".17"/>
      <path class="cls-1" d="m3.28,19.51h0c-.14.17-.12.41.04.56l1.02.93c.17.15.43.14.58-.03l2.1-2.31c.15-.17.14-.43-.04-.58l-.02-.02c-.17-.14-.42-.13-.56.03l-1.56,1.67c-.15.16-.39.17-.56.04l-.42-.34c-.17-.14-.43-.12-.58.06Z"/>
      <rect class="cls-4" x="4.07" y="23.84" width="1.31" height="1.31" rx=".17" ry=".17"/>
      <rect class="cls-4" x="4.07" y="28.53" width="1.31" height="1.31" rx=".17" ry=".17"/>
      <path class="cls-1" d="m3.28,34.38h0c-.14.17-.12.41.04.56l1.02.93c.17.15.43.14.58-.03l2.1-2.31c.15-.17.14-.43-.04-.58l-.02-.02c-.17-.14-.42-.13-.56.03l-1.56,1.67c-.15.16-.39.17-.56.04l-.42-.34c-.17-.14-.43-.12-.58.06Z"/>
      <line class="cls-3" x1="8.09" y1="19.54" x2="24.71" y2="19.54"/>
      <line class="cls-3" x1="8.09" y1="24.49" x2="24.71" y2="24.49"/>
      <line class="cls-3" x1="8.09" y1="29.19" x2="24.71" y2="29.19"/>
      <line class="cls-3" x1="8.09" y1="34.4" x2="24.71" y2="34.4"/>
      <path class="cls-5" d="m22.3,3.03h-4.79c0-.09.03-.18.03-.28,0-1.52-1.23-2.75-2.75-2.75s-2.75,1.23-2.75,2.75c0,.09.02.18.03.28h-4.79c-.78,0-1.41.53-1.41,1.19v3.05h17.86v-3.05c0-.66-.63-1.19-1.41-1.19ZM14.78.71c.31,0,.56.25.56.56s-.25.56-.56.56-.56-.25-.56-.56.25-.56.56-.56Z"/>
      <line class="cls-3" x1="8.09" y1="14.58" x2="24.71" y2="14.58"/>
    </g>
  </g>
</svg>